<?xml version="1.0" standalone="no"?>
<!DOCTYPE svg PUBLIC "-//W3C//DTD SVG 20010904//EN"
 "http://www.w3.org/TR/2001/REC-SVG-20010904/DTD/svg10.dtd">
<svg version="1.0" xmlns="http://www.w3.org/2000/svg"
 width="100.000000pt" height="100.000000pt" viewBox="0 0 100.000000 100.000000"
 preserveAspectRatio="xMidYMid meet">
<metadata>
Created by potrace 1.11, written by Peter Selinger 2001-2013
</metadata>
<g transform="translate(0.000000,100.000000) scale(0.100000,-0.100000)"
fill="#000000" stroke="none">
<path d="M609 861 c-17 -13 -47 -20 -109 -23 -94 -6 -150 -28 -195 -75 -30
-31 -65 -95 -65 -117 0 -7 -12 -17 -27 -21 -27 -6 -73 -48 -73 -65 0 -5 -23
-10 -51 -12 -96 -6 -96 -70 -1 -76 39 -2 54 -8 62 -22 6 -11 28 -29 49 -40 25
-12 41 -29 45 -45 10 -41 52 -101 90 -130 55 -42 115 -55 249 -55 104 0 122
-3 144 -20 14 -11 37 -20 50 -20 32 0 73 42 73 75 0 32 -41 75 -72 75 -13 0
-34 -7 -46 -16 -19 -13 -47 -15 -165 -12 -163 3 -195 15 -235 86 -27 49 -27
56 0 92 l22 30 240 0 c196 -1 245 -3 260 -15 11 -8 30 -15 43 -15 32 0 73 43
73 75 0 33 -41 75 -73 75 -13 0 -36 -9 -50 -20 -24 -19 -40 -20 -259 -20
l-233 0 -24 37 -24 38 24 45 c35 62 90 90 186 91 51 1 78 -3 94 -15 13 -9 34
-16 47 -16 31 0 72 43 72 75 0 33 -41 75 -73 75 -13 0 -35 -8 -48 -19z"/>
</g>
</svg>
